<svg width="10" height="8" viewBox="0 0 10 8" fill="none" xmlns="http://www.w3.org/2000/svg">
<path fill-rule="evenodd" clip-rule="evenodd" d="M5.44187 1.93466C5.20489 2.31059 5.1249 2.75158 5.1249 2.96089C5.1249 3.09879 5.05603 3.22772 4.94107 3.30503C4.8261 3.38234 4.68002 3.39798 4.55112 3.34676C4.46681 3.31327 4.37289 3.27921 4.27133 3.24239C4.00822 3.14699 3.69388 3.03303 3.3629 2.86207C3.02677 2.68845 2.66049 2.45264 2.24561 2.10252C2.25076 2.25882 2.28552 2.40196 2.34392 2.53462C2.48027 2.84431 2.76937 3.1505 3.24811 3.43566C3.37909 3.51367 3.45687 3.65638 3.45103 3.80798C3.44518 3.95957 3.35665 4.09596 3.22005 4.1638L3.21959 4.16403L3.21909 4.16428L3.21798 4.16482L3.21527 4.16615L3.20797 4.16964C3.20227 4.17234 3.19491 4.17575 3.18594 4.17977C3.16801 4.18782 3.14361 4.19832 3.11315 4.21042C3.05229 4.2346 2.96686 4.26533 2.86024 4.29559C2.74811 4.32741 2.61158 4.35899 2.45483 4.38174C2.54427 4.69722 2.74362 4.89415 2.95842 5.04289C3.08473 5.13037 3.20694 5.19475 3.32976 5.25945C3.36031 5.27555 3.39089 5.29166 3.42159 5.30816C3.48866 5.3442 3.57684 5.39291 3.64977 5.45086C3.70605 5.49558 3.86972 5.63442 3.86972 5.87006C3.86972 6.02072 3.80093 6.13814 3.75738 6.20089C3.70644 6.27431 3.64214 6.34056 3.57482 6.39848C3.43901 6.51534 3.25669 6.62763 3.04053 6.71962C2.79164 6.82554 2.48779 6.90883 2.14045 6.93883C2.1689 6.95399 2.19915 6.96846 2.23123 6.98227C2.53576 7.11335 2.98112 7.167 3.51764 7.11855C4.58137 7.02251 5.8433 6.54033 6.71065 5.78442C7.37556 5.02158 7.65716 4.2668 7.77436 3.7074C7.83365 3.42444 7.85093 3.19087 7.85378 3.03143C7.85521 2.95179 7.85302 2.89093 7.85074 2.85199C7.84959 2.83253 7.84842 2.81859 7.84767 2.81055L7.84692 2.803C7.83461 2.70146 7.8604 2.59873 7.91944 2.51489L7.84704 2.80392L7.84712 2.80464L7.91944 2.51489L8.68907 2.86729C8.6827 2.87696 8.69483 2.85864 8.68907 2.86729C8.68907 2.86729 8.69167 2.97694 8.69043 3.0462C8.68678 3.25041 8.66491 3.53633 8.59359 3.87676C8.45059 4.55929 8.10904 5.45862 7.32319 6.35141C7.31162 6.36456 7.29923 6.37696 7.28609 6.38856C6.27009 7.28511 4.82302 7.83531 3.59339 7.94633C2.9792 8.00179 2.37851 7.95154 1.89853 7.74494C1.40151 7.53102 1.01817 7.13706 0.943664 6.545C0.927278 6.41479 0.97377 6.28453 1.06907 6.19365C1.16438 6.10277 1.29729 6.06194 1.42761 6.08351C1.97191 6.17362 2.41418 6.08191 2.71101 5.95559C2.7406 5.943 2.79458 5.91733 2.79458 5.91733C2.79458 5.91733 2.58771 5.79942 2.47987 5.72475C2.03838 5.41901 1.56857 4.90227 1.56857 3.99988C1.56857 3.77035 1.75589 3.58428 1.98696 3.58428C2.01738 3.58428 2.04722 3.58371 2.07644 3.58263C1.86329 3.36837 1.69309 3.13079 1.57725 2.86766C1.34239 2.33421 1.35466 1.74967 1.59849 1.14416C1.65073 1.01445 1.76507 0.919485 1.90284 0.891396C2.0406 0.863307 2.18336 0.905852 2.28281 1.00463C2.88416 1.60197 3.35576 1.92152 3.74895 2.12462C3.97484 2.2413 4.16855 2.31818 4.36229 2.38957C4.42945 2.10634 4.54681 1.78834 4.73265 1.49354C5.0759 0.949021 5.66819 0.467316 6.58927 0.467316C7.16063 0.467316 7.52828 0.747003 7.75978 0.93869C7.78767 0.961789 7.81187 0.981994 7.83313 0.999745C7.88665 1.04444 7.92154 1.07358 7.94998 1.09418C8.14019 1.00464 8.31191 0.941892 8.46463 0.912986C8.62696 0.882258 8.86091 0.872836 9.05354 1.02603C9.25622 1.18722 9.27969 1.41909 9.27273 1.55642C9.26545 1.70014 9.22237 1.84406 9.17707 1.96398C9.08455 2.20895 8.93735 2.46934 8.82258 2.65709C8.77231 2.73933 8.72588 2.81146 8.68907 2.86729C8.6964 2.95802 8.68827 2.85873 8.68907 2.86729L7.91944 2.51489L7.91991 2.51421L7.92232 2.51077L7.93274 2.49569C7.94204 2.48215 7.95584 2.46187 7.97303 2.43607C8.0075 2.38434 8.05515 2.31105 8.10732 2.2257C8.18147 2.1044 8.25885 1.96824 8.32088 1.83944C8.2957 1.85115 8.26903 1.86397 8.2408 1.878C8.23513 1.88082 8.2294 1.88351 8.22361 1.88606C7.96762 1.99911 7.73698 1.93285 7.57505 1.84176C7.46326 1.77888 7.34913 1.68256 7.26674 1.61302C7.2513 1.59999 7.23697 1.5879 7.22398 1.57715C7.02807 1.41493 6.85469 1.29851 6.58927 1.29851C6.01534 1.29851 5.66624 1.57873 5.44187 1.93466Z" fill="white"/>
</svg>
