<svg width="9" height="9" viewBox="0 0 9 9" fill="none" xmlns="http://www.w3.org/2000/svg">
<path fill-rule="evenodd" clip-rule="evenodd" d="M0.454102 3.29276C0.454102 1.96728 1.52862 0.892761 2.8541 0.892761H6.0541C7.37958 0.892761 8.4541 1.96728 8.4541 3.29276V6.49276C8.4541 7.81824 7.37958 8.89276 6.0541 8.89276H2.8541C1.52862 8.89276 0.454102 7.81824 0.454102 6.49276V3.29276ZM2.8541 1.69276C1.97045 1.69276 1.2541 2.40911 1.2541 3.29276V6.49276C1.2541 7.37642 1.97045 8.09276 2.8541 8.09276H6.0541C6.93776 8.09276 7.6541 7.37642 7.6541 6.49276V3.29276C7.6541 2.40911 6.93776 1.69276 6.0541 1.69276H2.8541ZM3.6541 4.89276C3.6541 5.33459 4.01227 5.69276 4.4541 5.69276C4.89593 5.69276 5.2541 5.33459 5.2541 4.89276C5.2541 4.45093 4.89593 4.09276 4.4541 4.09276C4.01227 4.09276 3.6541 4.45093 3.6541 4.89276ZM4.4541 3.29276C3.57045 3.29276 2.8541 4.00911 2.8541 4.89276C2.8541 5.77642 3.57045 6.49276 4.4541 6.49276C5.33776 6.49276 6.0541 5.77642 6.0541 4.89276C6.0541 4.00911 5.33776 3.29276 4.4541 3.29276ZM6.2541 2.49276C5.92273 2.49276 5.6541 2.76139 5.6541 3.09276C5.6541 3.42413 5.92273 3.69276 6.2541 3.69276C6.58547 3.69276 6.8541 3.42413 6.8541 3.09276C6.8541 2.76139 6.58547 2.49276 6.2541 2.49276Z" fill="white"/>
</svg>
