<svg width="9" height="9" viewBox="0 0 9 9" fill="none" xmlns="http://www.w3.org/2000/svg">
<path fill-rule="evenodd" clip-rule="evenodd" d="M4.57954 0.322449C3.82743 0.322449 2.89796 0.576804 2.1462 1.15673C1.37889 1.74866 0.801758 2.67895 0.801758 3.97959C0.801758 4.77242 1.05992 5.37345 1.32085 5.77602C1.43346 5.94977 1.54668 6.08684 1.6403 6.1876L1.25947 7.75443C1.21738 7.92763 1.27715 8.11018 1.41255 8.22189C1.54794 8.3336 1.73416 8.35402 1.88941 8.27418L3.49325 7.44935C4.40175 7.76243 5.64644 7.65569 6.68176 7.16641C7.8168 6.63001 8.80176 5.58049 8.80176 3.97959C8.80176 2.56422 8.1948 1.62037 7.33332 1.05196C6.49912 0.501541 5.45973 0.322449 4.57954 0.322449ZM2.56627 6.14761C2.60938 5.97024 2.54559 5.78363 2.40432 5.67301L2.40275 5.67173C2.4 5.66946 2.39432 5.66472 2.38614 5.6575C2.36974 5.64304 2.34344 5.61882 2.31047 5.58491C2.24431 5.51686 2.15278 5.41132 2.06045 5.26887C1.87693 4.98573 1.69065 4.55819 1.69065 3.97959C1.69065 2.99452 2.11351 2.32481 2.67954 1.88816C3.26111 1.43952 3.9983 1.23673 4.57954 1.23673C5.36579 1.23673 6.21529 1.4005 6.85337 1.82151C7.46417 2.22453 7.91287 2.88068 7.91287 3.97959C7.91287 5.12155 7.23116 5.9006 6.31065 6.33562C5.36862 6.78081 4.27991 6.81137 3.6435 6.53084C3.52334 6.47787 3.38659 6.482 3.26966 6.54214L2.35619 7.01192L2.56627 6.14761ZM4.63496 3.16548C4.45812 3.01997 4.20318 3.03449 4.04304 3.1992L3.15415 4.11349C2.98059 4.29201 2.98059 4.58146 3.15415 4.75998C3.32772 4.93851 3.60913 4.93851 3.78269 4.75998L4.3903 4.13502L5.19078 4.7937C5.36762 4.93922 5.62256 4.9247 5.78269 4.75998L6.67158 3.8457C6.84515 3.66717 6.84515 3.37773 6.67158 3.1992C6.49802 3.02068 6.21661 3.02068 6.04304 3.1992L5.43544 3.82417L4.63496 3.16548Z" fill="white"/>
</svg>
