<svg width="10" height="8" viewBox="0 0 10 8" fill="none" xmlns="http://www.w3.org/2000/svg">
<path fill-rule="evenodd" clip-rule="evenodd" d="M1.98921 1.08572C2.59177 0.994585 3.52026 0.9104 4.89258 0.9104C6.26489 0.9104 7.19339 0.994585 7.79595 1.08572C8.20327 1.14733 8.49258 1.49481 8.49258 1.99196V5.07884C8.49258 5.57599 8.20327 5.92347 7.79595 5.98508C7.19339 6.07622 6.26489 6.1604 4.89258 6.1604C3.52026 6.1604 2.59177 6.07622 1.98921 5.98508C1.58188 5.92347 1.29258 5.57599 1.29258 5.07884V1.99196C1.29258 1.49481 1.58188 1.14733 1.98921 1.08572ZM4.89258 0.0354004C3.48356 0.0354004 2.50781 0.121758 1.85086 0.221123C0.91081 0.363306 0.392578 1.1634 0.392578 1.99196V5.07884C0.392578 5.9074 0.91081 6.7075 1.85086 6.84968C2.50781 6.94904 3.48356 7.0354 4.89258 7.0354C6.30159 7.0354 7.27735 6.94904 7.9343 6.84968C8.87435 6.70749 9.39258 5.9074 9.39258 5.07884V1.99196C9.39258 1.1634 8.87435 0.363306 7.9343 0.221123C7.27735 0.121758 6.30159 0.0354004 4.89258 0.0354004ZM4.23024 2.27467C4.37656 2.19854 4.55411 2.20688 4.69219 2.29638L6.04219 3.17138C6.16738 3.25252 6.24258 3.38912 6.24258 3.5354C6.24258 3.68168 6.16738 3.81828 6.04219 3.89942L4.69219 4.77442C4.55411 4.86392 4.37656 4.87227 4.23024 4.79613C4.08392 4.72 3.99258 4.57175 3.99258 4.4104V2.6604C3.99258 2.49905 4.08392 2.3508 4.23024 2.27467Z" fill="white"/>
</svg>
